REM DIRINDEX 1\2,1\3,1\4,1\5
REM DIRNAME cjc046,folder01,folder02,folder03,folder04
TITLE ""
FILE "120.mp3" MP3
  TRACK 01 AUDIO
    TITLE "0:"
    INDEX 01 00:00:00
  TRACK 02 AUDIO
    TITLE "2:cjc046_2913"
    INDEX 01 00:00:13
  TRACK 03 AUDIO
    TITLE "0:"
    INDEX 01 00:01:22
  TRACK 04 AUDIO
    TITLE "3:cjc046_2914"
    INDEX 01 00:01:40
  TRACK 05 AUDIO
    TITLE "0:"
    INDEX 01 00:02:40
  TRACK 06 AUDIO
    TITLE "4:cjc046_2915"
    INDEX 01 00:02:57
  TRACK 07 AUDIO
    TITLE "0:"
    INDEX 01 00:03:66
  TRACK 08 AUDIO
    TITLE "2:cjc046_2916"
    INDEX 01 00:04:74
  TRACK 09 AUDIO
    TITLE "0:"
    INDEX 01 00:06:14
  TRACK 10 AUDIO
    TITLE "3:cjc046_2917"
    INDEX 01 00:06:43
  TRACK 11 AUDIO
    TITLE "0:"
    INDEX 01 00:07:52
  TRACK 12 AUDIO
    TITLE "4:cjc046_2918"
    INDEX 01 00:07:64
  TRACK 13 AUDIO
    TITLE "0:"
    INDEX 01 00:09:04
  TRACK 14 AUDIO
    TITLE "2:cjc046_2919"
    INDEX 01 00:10:14
  TRACK 15 AUDIO
    TITLE "0:"
    INDEX 01 00:11:27
  TRACK 16 AUDIO
    TITLE "3:cjc046_2920"
    INDEX 01 00:11:54
  TRACK 17 AUDIO
    TITLE "0:"
    INDEX 01 00:12:56
  TRACK 18 AUDIO
    TITLE "4:cjc046_2921"
    INDEX 01 00:12:73
  TRACK 19 AUDIO
    TITLE "0:"
    INDEX 01 00:14:13
  TRACK 20 AUDIO
    TITLE "2:cjc046_2922"
    INDEX 01 00:15:32
  TRACK 21 AUDIO
    TITLE "0:"
    INDEX 01 00:16:36
  TRACK 22 AUDIO
    TITLE "3:cjc046_2923"
    INDEX 01 00:16:55
  TRACK 23 AUDIO
    TITLE "0:"
    INDEX 01 00:17:63
  TRACK 24 AUDIO
    TITLE "4:cjc046_2924"
    INDEX 01 00:18:05
  TRACK 25 AUDIO
    TITLE "0:"
    INDEX 01 00:19:09
  TRACK 26 AUDIO
    TITLE "2:cjc046_2925"
    INDEX 01 00:20:12
  TRACK 27 AUDIO
    TITLE "0:"
    INDEX 01 00:21:41
  TRACK 28 AUDIO
    TITLE "3:cjc046_2926"
    INDEX 01 00:21:55
  TRACK 29 AUDIO
    TITLE "0:"
    INDEX 01 00:22:70
  TRACK 30 AUDIO
    TITLE "4:cjc046_2927"
    INDEX 01 00:22:74
  TRACK 31 AUDIO
    TITLE "0:"
    INDEX 01 00:24:29
  TRACK 32 AUDIO
    TITLE "2:cjc046_2928"
    INDEX 01 00:25:33
  TRACK 33 AUDIO
    TITLE "0:"
    INDEX 01 00:26:38
  TRACK 34 AUDIO
    TITLE "3:cjc046_2929"
    INDEX 01 00:26:56
  TRACK 35 AUDIO
    TITLE "0:"
    INDEX 01 00:28:06
  TRACK 36 AUDIO
    TITLE "4:cjc046_2930"
    INDEX 01 00:28:21
  TRACK 37 AUDIO
    TITLE "0:"
    INDEX 01 00:29:27
  TRACK 38 AUDIO
    TITLE "2:cjc046_2931"
    INDEX 01 00:30:34
  TRACK 39 AUDIO
    TITLE "0:"
    INDEX 01 00:31:53
  TRACK 40 AUDIO
    TITLE "3:cjc046_2932"
    INDEX 01 00:32:03
  TRACK 41 AUDIO
    TITLE "0:"
    INDEX 01 00:33:17
  TRACK 42 AUDIO
    TITLE "4:cjc046_2933"
    INDEX 01 00:33:30
  TRACK 43 AUDIO
    TITLE "0:"
    INDEX 01 00:34:49
  TRACK 44 AUDIO
    TITLE "2:cjc046_2934"
    INDEX 01 00:35:57
  TRACK 45 AUDIO
    TITLE "0:"
    INDEX 01 00:36:60
  TRACK 46 AUDIO
    TITLE "3:cjc046_2935"
    INDEX 01 00:37:07
  TRACK 47 AUDIO
    TITLE "0:"
    INDEX 01 00:38:33
  TRACK 48 AUDIO
    TITLE "4:cjc046_2936"
    INDEX 01 00:38:51
  TRACK 49 AUDIO
    TITLE "0:"
    INDEX 01 00:39:56
  TRACK 50 AUDIO
    TITLE "2:cjc046_2937"
    INDEX 01 00:40:64
  TRACK 51 AUDIO
    TITLE "0:"
    INDEX 01 00:42:14
  TRACK 52 AUDIO
    TITLE "3:cjc046_2938"
    INDEX 01 00:42:33
  TRACK 53 AUDIO
    TITLE "0:"
    INDEX 01 00:43:56
  TRACK 54 AUDIO
    TITLE "4:cjc046_2939"
    INDEX 01 00:43:64
  TRACK 55 AUDIO
    TITLE "0:"
    INDEX 01 00:45:14
  TRACK 56 AUDIO
    TITLE "2:cjc046_2940"
    INDEX 01 00:46:27
  TRACK 57 AUDIO
    TITLE "0:"
    INDEX 01 00:47:36
  TRACK 58 AUDIO
    TITLE "3:cjc046_2941"
    INDEX 01 00:47:56
  TRACK 59 AUDIO
    TITLE "0:"
    INDEX 01 00:48:59
  TRACK 60 AUDIO
    TITLE "4:cjc046_2942"
    INDEX 01 00:48:73
  TRACK 61 AUDIO
    TITLE "0:"
    INDEX 01 00:50:05
  TRACK 62 AUDIO
    TITLE "2:cjc046_2943"
    INDEX 01 00:51:13
  TRACK 63 AUDIO
    TITLE "0:"
    INDEX 01 00:52:26
  TRACK 64 AUDIO
    TITLE "3:cjc046_2944"
    INDEX 01 00:52:45
  TRACK 65 AUDIO
    TITLE "0:"
    INDEX 01 00:54:42
  TRACK 66 AUDIO
    TITLE "4:cjc046_2945"
    INDEX 01 00:54:68
  TRACK 67 AUDIO
    TITLE "0:"
    INDEX 01 00:56:06
  TRACK 68 AUDIO
    TITLE "2:cjc046_2946"
    INDEX 01 00:57:13
  TRACK 69 AUDIO
    TITLE "0:"
    INDEX 01 00:58:26
  TRACK 70 AUDIO
    TITLE "3:cjc046_2947"
    INDEX 01 00:58:48
  TRACK 71 AUDIO
    TITLE "0:"
    INDEX 01 01:00:27
  TRACK 72 AUDIO
    TITLE "4:cjc046_2948"
    INDEX 01 01:00:37
  TRACK 73 AUDIO
    TITLE "0:"
    INDEX 01 01:01:48
  TRACK 74 AUDIO
    TITLE "2:cjc046_2949"
    INDEX 01 01:02:59
  TRACK 75 AUDIO
    TITLE "0:"
    INDEX 01 01:04:01
  TRACK 76 AUDIO
    TITLE "3:cjc046_2950"
    INDEX 01 01:04:29
  TRACK 77 AUDIO
    TITLE "0:"
    INDEX 01 01:05:28
  TRACK 78 AUDIO
    TITLE "4:cjc046_2951"
    INDEX 01 01:05:48
  TRACK 79 AUDIO
    TITLE "0:"
    INDEX 01 01:06:63
